<mxfile host="65bd71144e">
    <diagram id="0XVg2Ykpilk-Bxxbkh0Y" name="第 1 页">
        <mxGraphModel dx="848" dy="792" grid="1" gridSize="10" guides="1" tooltips="1" connect="1" arrows="1" fold="1" page="1" pageScale="1" pageWidth="827" pageHeight="1169" math="0" shadow="0">
            <root>
                <mxCell id="0"/>
                <mxCell id="1" parent="0"/>
                <mxCell id="2" value="&lt;div style=&quot;background-color:#262626;color:#d0d0d0;font-family:'JetBrains Mono',monospace;font-size:9.8pt;&quot;&gt;&lt;pre&gt;&lt;div style=&quot;font-family: &amp;quot;JetBrains Mono&amp;quot;, monospace; font-size: 9.8pt;&quot;&gt;&lt;div style=&quot;font-size: 9.8pt;&quot;&gt;&lt;span style=&quot;color:#6c95eb;&quot;&gt;abstract class &lt;/span&gt;BonusGamePlay&lt;/div&gt;&lt;/div&gt;&lt;/pre&gt;&lt;/div&gt;" style="swimlane;fontStyle=0;childLayout=stackLayout;horizontal=1;startSize=30;horizontalStack=0;resizeParent=1;resizeParentMax=0;resizeLast=0;collapsible=1;marginBottom=0;whiteSpace=wrap;html=1;" vertex="1" parent="1">
                    <mxGeometry x="200" y="249" width="410" height="120" as="geometry"/>
                </mxCell>
                <mxCell id="3" value="&lt;span style=&quot;color: rgb(193, 145, 255); font-family: &amp;quot;JetBrains Mono&amp;quot;, monospace; font-size: 13.0667px; text-align: center; background-color: rgb(38, 38, 38);&quot;&gt;- BonusReelContainer&lt;/span&gt;&amp;nbsp;Container" style="text;strokeColor=none;fillColor=none;align=left;verticalAlign=middle;spacingLeft=4;spacingRight=4;overflow=hidden;points=[[0,0.5],[1,0.5]];portConstraint=eastwest;rotatable=0;whiteSpace=wrap;html=1;" vertex="1" parent="2">
                    <mxGeometry y="30" width="410" height="30" as="geometry"/>
                </mxCell>
                <mxCell id="4" value="+&amp;nbsp;&lt;span style=&quot;color: rgb(108, 149, 235); background-color: rgb(38, 38, 38); font-family: &amp;quot;JetBrains Mono&amp;quot;, monospace; font-size: 9.8pt;&quot;&gt;abstract&lt;/span&gt;&lt;span style=&quot;background-color: initial;&quot;&gt;&amp;nbsp;void OnReelStop(&lt;/span&gt;&lt;span style=&quot;font-family: &amp;quot;JetBrains Mono&amp;quot;, monospace; font-size: 9.8pt; color: rgb(108, 149, 235);&quot;&gt;int &lt;/span&gt;&lt;span style=&quot;background-color: rgb(38, 38, 38); color: rgb(208, 208, 208); font-family: &amp;quot;JetBrains Mono&amp;quot;, monospace; font-size: 9.8pt;&quot;&gt;tableIndex&lt;/span&gt;&lt;span style=&quot;font-family: &amp;quot;JetBrains Mono&amp;quot;, monospace; font-size: 9.8pt; color: rgb(189, 189, 189);&quot;&gt;, &lt;/span&gt;&lt;span style=&quot;font-family: &amp;quot;JetBrains Mono&amp;quot;, monospace; font-size: 9.8pt; color: rgb(108, 149, 235);&quot;&gt;int &lt;/span&gt;&lt;span style=&quot;background-color: rgb(38, 38, 38); color: rgb(208, 208, 208); font-family: &amp;quot;JetBrains Mono&amp;quot;, monospace; font-size: 9.8pt;&quot;&gt;reelIndex&lt;/span&gt;&lt;span style=&quot;background-color: initial;&quot;&gt;)&lt;/span&gt;" style="text;strokeColor=none;fillColor=none;align=left;verticalAlign=middle;spacingLeft=4;spacingRight=4;overflow=hidden;points=[[0,0.5],[1,0.5]];portConstraint=eastwest;rotatable=0;whiteSpace=wrap;html=1;" vertex="1" parent="2">
                    <mxGeometry y="60" width="410" height="30" as="geometry"/>
                </mxCell>
                <mxCell id="5" value="...." style="text;strokeColor=none;fillColor=none;align=left;verticalAlign=middle;spacingLeft=4;spacingRight=4;overflow=hidden;points=[[0,0.5],[1,0.5]];portConstraint=eastwest;rotatable=0;whiteSpace=wrap;html=1;" vertex="1" parent="2">
                    <mxGeometry y="90" width="410" height="30" as="geometry"/>
                </mxCell>
                <mxCell id="7" value="&lt;div style=&quot;background-color:#262626;color:#d0d0d0;font-family:'JetBrains Mono',monospace;font-size:9.8pt;&quot;&gt;&lt;pre&gt;&lt;div style=&quot;font-family: &amp;quot;JetBrains Mono&amp;quot;, monospace; font-size: 9.8pt;&quot;&gt;&lt;pre&gt;&lt;pre style=&quot;font-size: 13.0667px;&quot;&gt;&lt;div style=&quot;font-family: &amp;quot;JetBrains Mono&amp;quot;, monospace; font-size: 9.8pt;&quot;&gt;&lt;span style=&quot;color:#787878;&quot;&gt;ColMultGamePlay&lt;/span&gt;&lt;/div&gt;&lt;/pre&gt;&lt;/pre&gt;&lt;/div&gt;&lt;/pre&gt;&lt;/div&gt;" style="swimlane;fontStyle=0;childLayout=stackLayout;horizontal=1;startSize=30;horizontalStack=0;resizeParent=1;resizeParentMax=0;resizeLast=0;collapsible=1;marginBottom=0;whiteSpace=wrap;html=1;" vertex="1" parent="1">
                    <mxGeometry x="270" y="525" width="270" height="60" as="geometry"/>
                </mxCell>
                <mxCell id="9" style="edgeStyle=none;html=1;exitX=0.5;exitY=0;exitDx=0;exitDy=0;endArrow=block;endFill=0;" edge="1" parent="1" source="7" target="5">
                    <mxGeometry relative="1" as="geometry">
                        <mxPoint x="205" y="440" as="sourcePoint"/>
                        <mxPoint x="510" y="360" as="targetPoint"/>
                    </mxGeometry>
                </mxCell>
                <mxCell id="10" value="&lt;div style=&quot;background-color:#262626;color:#d0d0d0;font-family:'JetBrains Mono',monospace;font-size:9.8pt;&quot;&gt;&lt;pre&gt;&lt;div style=&quot;font-family: &amp;quot;JetBrains Mono&amp;quot;, monospace; font-size: 9.8pt;&quot;&gt;&lt;pre&gt;&lt;div style=&quot;font-family: &amp;quot;JetBrains Mono&amp;quot;, monospace; font-size: 9.8pt;&quot;&gt;&lt;span style=&quot;color:#c191ff;&quot;&gt;BonusReelContainer&lt;/span&gt;&lt;/div&gt;&lt;/pre&gt;&lt;/div&gt;&lt;/pre&gt;&lt;/div&gt;" style="swimlane;fontStyle=0;childLayout=stackLayout;horizontal=1;startSize=30;horizontalStack=0;resizeParent=1;resizeParentMax=0;resizeLast=0;collapsible=1;marginBottom=0;whiteSpace=wrap;html=1;" vertex="1" parent="1">
                    <mxGeometry x="805" y="249" width="270" height="90" as="geometry"/>
                </mxCell>
                <mxCell id="11" value="-&amp;nbsp;&lt;span style=&quot;background-color: rgb(38, 38, 38); color: rgb(208, 208, 208); font-family: &amp;quot;JetBrains Mono&amp;quot;, monospace; font-size: 9.8pt;&quot;&gt;BonusGamePlay[]&lt;/span&gt;&lt;span style=&quot;background-color: initial;&quot;&gt;&amp;nbsp;gamePlay&lt;/span&gt;" style="text;strokeColor=none;fillColor=none;align=left;verticalAlign=middle;spacingLeft=4;spacingRight=4;overflow=hidden;points=[[0,0.5],[1,0.5]];portConstraint=eastwest;rotatable=0;whiteSpace=wrap;html=1;" vertex="1" parent="10">
                    <mxGeometry y="30" width="270" height="30" as="geometry"/>
                </mxCell>
                <mxCell id="14" value="...." style="text;strokeColor=none;fillColor=none;align=left;verticalAlign=middle;spacingLeft=4;spacingRight=4;overflow=hidden;points=[[0,0.5],[1,0.5]];portConstraint=eastwest;rotatable=0;whiteSpace=wrap;html=1;" vertex="1" parent="10">
                    <mxGeometry y="60" width="270" height="30" as="geometry"/>
                </mxCell>
                <mxCell id="23" style="edgeStyle=none;html=1;exitX=0;exitY=0.5;exitDx=0;exitDy=0;" edge="1" parent="1" target="4">
                    <mxGeometry relative="1" as="geometry">
                        <mxPoint x="805" y="324" as="sourcePoint"/>
                    </mxGeometry>
                </mxCell>
                <mxCell id="24" style="edgeStyle=none;html=1;exitX=1;exitY=0.5;exitDx=0;exitDy=0;entryX=0;entryY=0.5;entryDx=0;entryDy=0;" edge="1" parent="1" source="3" target="11">
                    <mxGeometry relative="1" as="geometry"/>
                </mxCell>
                <mxCell id="25" value="&lt;div style=&quot;background-color: rgb(38, 38, 38); font-family: &amp;quot;JetBrains Mono&amp;quot;, monospace; font-size: 9.8pt;&quot;&gt;&lt;pre style=&quot;&quot;&gt;&lt;div style=&quot;font-family: &amp;quot;JetBrains Mono&amp;quot;, monospace; font-size: 9.8pt;&quot;&gt;&lt;pre style=&quot;&quot;&gt;&lt;pre style=&quot;font-size: 13.0667px;&quot;&gt;&lt;div style=&quot;font-family: &amp;quot;JetBrains Mono&amp;quot;, monospace; font-size: 9.8pt;&quot;&gt;&lt;font color=&quot;#787878&quot;&gt;&amp;lt;&amp;lt;Interface&amp;gt;&amp;gt;&lt;/font&gt;&lt;/div&gt;&lt;div style=&quot;font-family: &amp;quot;JetBrains Mono&amp;quot;, monospace; font-size: 9.8pt;&quot;&gt;&lt;div style=&quot;color: rgb(208, 208, 208); font-size: 9.8pt;&quot;&gt;&lt;span style=&quot;color:#c191ff;&quot;&gt;IHasSpecialCoin&lt;/span&gt;&lt;/div&gt;&lt;/div&gt;&lt;/pre&gt;&lt;/pre&gt;&lt;/div&gt;&lt;/pre&gt;&lt;/div&gt;" style="swimlane;fontStyle=0;childLayout=stackLayout;horizontal=1;startSize=30;horizontalStack=0;resizeParent=1;resizeParentMax=0;resizeLast=0;collapsible=1;marginBottom=0;whiteSpace=wrap;html=1;" vertex="1" parent="1">
                    <mxGeometry x="640" y="390" width="270" height="60" as="geometry"/>
                </mxCell>
                <mxCell id="26" style="edgeStyle=none;html=1;entryX=0.5;entryY=0;entryDx=0;entryDy=0;" edge="1" parent="1" source="14" target="25">
                    <mxGeometry relative="1" as="geometry">
                        <mxPoint x="620" y="304" as="sourcePoint"/>
                        <mxPoint x="930" y="380" as="targetPoint"/>
                    </mxGeometry>
                </mxCell>
                <mxCell id="27" value="&lt;div style=&quot;background-color:#262626;color:#d0d0d0;font-family:'JetBrains Mono',monospace;font-size:9.8pt;&quot;&gt;&lt;pre&gt;&lt;div style=&quot;font-family: &amp;quot;JetBrains Mono&amp;quot;, monospace; font-size: 9.8pt;&quot;&gt;&lt;pre&gt;&lt;pre style=&quot;font-size: 13.0667px;&quot;&gt;&lt;div style=&quot;font-family: &amp;quot;JetBrains Mono&amp;quot;, monospace; font-size: 9.8pt;&quot;&gt;&lt;div style=&quot;font-size: 9.8pt;&quot;&gt;&lt;span style=&quot;color:#c191ff;&quot;&gt;CollectGamePlay&lt;/span&gt;&lt;/div&gt;&lt;/div&gt;&lt;/pre&gt;&lt;/pre&gt;&lt;/div&gt;&lt;/pre&gt;&lt;/div&gt;" style="swimlane;fontStyle=0;childLayout=stackLayout;horizontal=1;startSize=30;horizontalStack=0;resizeParent=1;resizeParentMax=0;resizeLast=0;collapsible=1;marginBottom=0;whiteSpace=wrap;html=1;" vertex="1" parent="1">
                    <mxGeometry x="640" y="510" width="270" height="60" as="geometry"/>
                </mxCell>
                <mxCell id="28" style="edgeStyle=none;html=1;exitX=0.5;exitY=0;exitDx=0;exitDy=0;endArrow=block;endFill=0;entryX=0.5;entryY=1;entryDx=0;entryDy=0;" edge="1" parent="1" source="27" target="25">
                    <mxGeometry relative="1" as="geometry">
                        <mxPoint x="415" y="640" as="sourcePoint"/>
                        <mxPoint x="415" y="379" as="targetPoint"/>
                    </mxGeometry>
                </mxCell>
                <mxCell id="29" style="edgeStyle=none;html=1;exitX=0.25;exitY=0;exitDx=0;exitDy=0;endArrow=block;endFill=0;entryX=0.771;entryY=1;entryDx=0;entryDy=0;entryPerimeter=0;" edge="1" parent="1" source="27" target="5">
                    <mxGeometry relative="1" as="geometry">
                        <mxPoint x="785" y="535" as="sourcePoint"/>
                        <mxPoint x="785" y="460" as="targetPoint"/>
                    </mxGeometry>
                </mxCell>
            </root>
        </mxGraphModel>
    </diagram>
</mxfile>